<svg width="20" height="20" viewBox="0 0 20 20" fill="none" xmlns="http://www.w3.org/2000/svg">
<path d="M13.4837 19.6167C13.7317 19.8647 14.0474 20 14.4194 20C15.1635 20 15.761 19.4138 15.761 18.6697C15.761 18.2976 15.6032 17.9594 15.3439 17.7001L7.45209 9.98873L15.3439 2.29989C15.6032 2.04059 15.761 1.69109 15.761 1.33033C15.761 0.586246 15.1635 0 14.4194 0C14.0474 0 13.7317 0.135287 13.4837 0.383315L4.71252 8.95152C4.39685 9.24465 4.25029 9.60541 4.23901 10C4.23901 10.3946 4.39685 10.7328 4.71252 11.0372L13.4837 19.6167Z" fill="#FF9C07"/>
</svg>
