<svg width="12" height="12" viewBox="0 0 12 12" fill="none" xmlns="http://www.w3.org/2000/svg">
<g clip-path="url(#clip0_1506_41)">
<path d="M7 8.5C7 8.23478 6.89464 7.98043 6.70711 7.79289C6.51957 7.60536 6.26522 7.5 6 7.5C5.73478 7.5 5.48043 7.60536 5.29289 7.79289C5.10536 7.98043 5 8.23478 5 8.5C5 8.76522 5.10536 9.01957 5.29289 9.20711C5.48043 9.39464 5.73478 9.5 6 9.5C6.26522 9.5 6.51957 9.39464 6.70711 9.20711C6.89464 9.01957 7 8.76522 7 8.5V8.5Z" stroke="#FF9C07" stroke-linecap="round" stroke-linejoin="round"/>
<path d="M7 3.5C7 3.23478 6.89464 2.98043 6.70711 2.79289C6.51957 2.60536 6.26522 2.5 6 2.5C5.73478 2.5 5.48043 2.60536 5.29289 2.79289C5.10536 2.98043 5 3.23478 5 3.5C5 3.76522 5.10536 4.01957 5.29289 4.20711C5.48043 4.39464 5.73478 4.5 6 4.5C6.26522 4.5 6.51957 4.39464 6.70711 4.20711C6.89464 4.01957 7 3.76522 7 3.5V3.5Z" stroke="#FF9C07" stroke-linecap="round" stroke-linejoin="round"/>
<path d="M4.5 6C4.5 5.73478 4.39464 5.48043 4.20711 5.29289C4.01957 5.10536 3.76522 5 3.5 5C3.23478 5 2.98043 5.10536 2.79289 5.29289C2.60536 5.48043 2.5 5.73478 2.5 6C2.5 6.26522 2.60536 6.51957 2.79289 6.70711C2.98043 6.89464 3.23478 7 3.5 7C3.76522 7 4.01957 6.89464 4.20711 6.70711C4.39464 6.51957 4.5 6.26522 4.5 6Z" stroke="#FF9C07" stroke-linecap="round" stroke-linejoin="round"/>
<path d="M9.5 6C9.5 5.73478 9.39464 5.48043 9.20711 5.29289C9.01957 5.10536 8.76522 5 8.5 5C8.23478 5 7.98043 5.10536 7.79289 5.29289C7.60536 5.48043 7.5 5.73478 7.5 6C7.5 6.26522 7.60536 6.51957 7.79289 6.70711C7.98043 6.89464 8.23478 7 8.5 7C8.76522 7 9.01957 6.89464 9.20711 6.70711C9.39464 6.51957 9.5 6.26522 9.5 6Z" stroke="#FF9C07" stroke-linecap="round" stroke-linejoin="round"/>
<path d="M6 11L11 11M6 11C8.7615 11 11 8.7615 11 6C11 3.2385 8.7615 1 6 1C3.2385 1 1 3.2385 1 6C1 8.7615 3.2385 11 6 11Z" stroke="#FF9C07" stroke-linecap="round" stroke-linejoin="round"/>
</g>
<defs>
<clipPath id="clip0_1506_41">
<rect width="12" height="12" fill="white" transform="translate(0 12) rotate(-90)"/>
</clipPath>
</defs>
</svg>
